<mxfile host="Electron" modified="2023-12-06T05:49:31.298Z" agent="Mozilla/5.0 (Macintosh; Intel Mac OS X 10_15_7) AppleWebKit/537.36 (KHTML, like Gecko) draw.io/22.1.2 Chrome/114.0.5735.289 Electron/25.9.4 Safari/537.36" etag="R0lMf5J70xRRQ9t0ukyP" version="22.1.2" type="device">
  <diagram name="第 1 页" id="KemlZvxES-pmjvx99MJy">
    <mxGraphModel dx="199" dy="658" grid="1" gridSize="10" guides="1" tooltips="1" connect="1" arrows="1" fold="1" page="1" pageScale="1" pageWidth="827" pageHeight="1169" math="0" shadow="0">
      <root>
        <mxCell id="0" />
        <mxCell id="1" parent="0" />
        <mxCell id="MlOCYBxQjXrcOC7JeDMh-20" value="Nil" style="rounded=0;whiteSpace=wrap;html=1;fontSize=24;" parent="1" vertex="1">
          <mxGeometry x="1040" y="90" width="60" height="60" as="geometry" />
        </mxCell>
        <mxCell id="MlOCYBxQjXrcOC7JeDMh-21" value="Front:&amp;nbsp;" style="text;html=1;strokeColor=none;fillColor=none;align=center;verticalAlign=middle;whiteSpace=wrap;rounded=0;fontSize=24;" parent="1" vertex="1">
          <mxGeometry x="910" y="105" width="60" height="30" as="geometry" />
        </mxCell>
        <mxCell id="MlOCYBxQjXrcOC7JeDMh-22" value="Back:" style="text;html=1;strokeColor=none;fillColor=none;align=center;verticalAlign=middle;whiteSpace=wrap;rounded=0;fontSize=24;" parent="1" vertex="1">
          <mxGeometry x="910" y="180" width="60" height="30" as="geometry" />
        </mxCell>
        <mxCell id="MlOCYBxQjXrcOC7JeDMh-23" value="Nil" style="rounded=0;whiteSpace=wrap;html=1;fontSize=24;" parent="1" vertex="1">
          <mxGeometry x="1040" y="165" width="60" height="60" as="geometry" />
        </mxCell>
        <mxCell id="MlOCYBxQjXrcOC7JeDMh-24" value="1" style="rounded=0;whiteSpace=wrap;html=1;fontSize=24;" parent="1" vertex="1">
          <mxGeometry x="980" y="90" width="60" height="60" as="geometry" />
        </mxCell>
        <mxCell id="MlOCYBxQjXrcOC7JeDMh-25" value="2" style="rounded=0;whiteSpace=wrap;html=1;fontSize=24;strokeColor=#000000;strokeWidth=1;" parent="1" vertex="1">
          <mxGeometry x="980" y="165" width="60" height="60" as="geometry" />
        </mxCell>
        <mxCell id="MlOCYBxQjXrcOC7JeDMh-26" value="" style="shape=flexArrow;endArrow=classic;html=1;rounded=0;" parent="1" edge="1">
          <mxGeometry width="50" height="50" relative="1" as="geometry">
            <mxPoint x="1120" y="164" as="sourcePoint" />
            <mxPoint x="1230" y="164" as="targetPoint" />
          </mxGeometry>
        </mxCell>
        <mxCell id="MlOCYBxQjXrcOC7JeDMh-27" value="&lt;font style=&quot;font-size: 24px;&quot;&gt;push(3)&lt;/font&gt;" style="text;html=1;strokeColor=none;fillColor=none;align=center;verticalAlign=middle;whiteSpace=wrap;rounded=0;" parent="1" vertex="1">
          <mxGeometry x="1130" y="114" width="90" height="30" as="geometry" />
        </mxCell>
        <mxCell id="MlOCYBxQjXrcOC7JeDMh-28" value="Nil" style="rounded=0;whiteSpace=wrap;html=1;fontSize=24;" parent="1" vertex="1">
          <mxGeometry x="1371" y="90" width="60" height="60" as="geometry" />
        </mxCell>
        <mxCell id="MlOCYBxQjXrcOC7JeDMh-29" value="Front:&amp;nbsp;" style="text;html=1;strokeColor=none;fillColor=none;align=center;verticalAlign=middle;whiteSpace=wrap;rounded=0;fontSize=24;" parent="1" vertex="1">
          <mxGeometry x="1241" y="105" width="60" height="30" as="geometry" />
        </mxCell>
        <mxCell id="MlOCYBxQjXrcOC7JeDMh-30" value="Back:" style="text;html=1;strokeColor=none;fillColor=none;align=center;verticalAlign=middle;whiteSpace=wrap;rounded=0;fontSize=24;" parent="1" vertex="1">
          <mxGeometry x="1241" y="180" width="60" height="30" as="geometry" />
        </mxCell>
        <mxCell id="MlOCYBxQjXrcOC7JeDMh-31" value="Nil" style="rounded=0;whiteSpace=wrap;html=1;fontSize=24;" parent="1" vertex="1">
          <mxGeometry x="1431" y="165" width="60" height="60" as="geometry" />
        </mxCell>
        <mxCell id="MlOCYBxQjXrcOC7JeDMh-32" value="1" style="rounded=0;whiteSpace=wrap;html=1;fontSize=24;" parent="1" vertex="1">
          <mxGeometry x="1311" y="90" width="60" height="60" as="geometry" />
        </mxCell>
        <mxCell id="MlOCYBxQjXrcOC7JeDMh-33" value="2" style="rounded=0;whiteSpace=wrap;html=1;fontSize=24;strokeColor=#000000;strokeWidth=1;" parent="1" vertex="1">
          <mxGeometry x="1371" y="165" width="60" height="60" as="geometry" />
        </mxCell>
        <mxCell id="MlOCYBxQjXrcOC7JeDMh-34" value="3" style="rounded=0;whiteSpace=wrap;html=1;fontSize=24;strokeColor=#FF0000;strokeWidth=3;" parent="1" vertex="1">
          <mxGeometry x="1311" y="165" width="60" height="60" as="geometry" />
        </mxCell>
        <mxCell id="MlOCYBxQjXrcOC7JeDMh-35" value="" style="shape=flexArrow;endArrow=classic;html=1;rounded=0;" parent="1" edge="1">
          <mxGeometry width="50" height="50" relative="1" as="geometry">
            <mxPoint x="1510" y="164" as="sourcePoint" />
            <mxPoint x="1620" y="164" as="targetPoint" />
          </mxGeometry>
        </mxCell>
        <mxCell id="MlOCYBxQjXrcOC7JeDMh-36" value="&lt;font style=&quot;font-size: 24px;&quot;&gt;push(4)&lt;/font&gt;" style="text;html=1;strokeColor=none;fillColor=none;align=center;verticalAlign=middle;whiteSpace=wrap;rounded=0;" parent="1" vertex="1">
          <mxGeometry x="1520" y="114" width="90" height="30" as="geometry" />
        </mxCell>
        <mxCell id="MlOCYBxQjXrcOC7JeDMh-37" value="Nil" style="rounded=0;whiteSpace=wrap;html=1;fontSize=24;" parent="1" vertex="1">
          <mxGeometry x="1770" y="90" width="60" height="60" as="geometry" />
        </mxCell>
        <mxCell id="MlOCYBxQjXrcOC7JeDMh-38" value="Front:&amp;nbsp;" style="text;html=1;strokeColor=none;fillColor=none;align=center;verticalAlign=middle;whiteSpace=wrap;rounded=0;fontSize=24;" parent="1" vertex="1">
          <mxGeometry x="1640" y="105" width="60" height="30" as="geometry" />
        </mxCell>
        <mxCell id="MlOCYBxQjXrcOC7JeDMh-39" value="Back:" style="text;html=1;strokeColor=none;fillColor=none;align=center;verticalAlign=middle;whiteSpace=wrap;rounded=0;fontSize=24;" parent="1" vertex="1">
          <mxGeometry x="1640" y="180" width="60" height="30" as="geometry" />
        </mxCell>
        <mxCell id="MlOCYBxQjXrcOC7JeDMh-40" value="Nil" style="rounded=0;whiteSpace=wrap;html=1;fontSize=24;" parent="1" vertex="1">
          <mxGeometry x="1890" y="165" width="60" height="60" as="geometry" />
        </mxCell>
        <mxCell id="MlOCYBxQjXrcOC7JeDMh-41" value="1" style="rounded=0;whiteSpace=wrap;html=1;fontSize=24;" parent="1" vertex="1">
          <mxGeometry x="1710" y="90" width="60" height="60" as="geometry" />
        </mxCell>
        <mxCell id="MlOCYBxQjXrcOC7JeDMh-42" value="2" style="rounded=0;whiteSpace=wrap;html=1;fontSize=24;strokeColor=#000000;strokeWidth=1;" parent="1" vertex="1">
          <mxGeometry x="1830" y="165" width="60" height="60" as="geometry" />
        </mxCell>
        <mxCell id="MlOCYBxQjXrcOC7JeDMh-43" value="4" style="rounded=0;whiteSpace=wrap;html=1;fontSize=24;strokeColor=#FF0000;strokeWidth=3;" parent="1" vertex="1">
          <mxGeometry x="1710" y="165" width="60" height="60" as="geometry" />
        </mxCell>
        <mxCell id="MlOCYBxQjXrcOC7JeDMh-46" value="3" style="rounded=0;whiteSpace=wrap;html=1;fontSize=24;strokeColor=#000000;strokeWidth=1;" parent="1" vertex="1">
          <mxGeometry x="1770" y="165" width="60" height="60" as="geometry" />
        </mxCell>
        <mxCell id="TFK_jzNgdmk0VvyLswP--1" value="" style="group" vertex="1" connectable="0" parent="1">
          <mxGeometry x="1040" y="90" width="60" height="60" as="geometry" />
        </mxCell>
        <mxCell id="TFK_jzNgdmk0VvyLswP--2" value="" style="rounded=0;whiteSpace=wrap;html=1;fontSize=24;" vertex="1" parent="TFK_jzNgdmk0VvyLswP--1">
          <mxGeometry width="60" height="60" as="geometry" />
        </mxCell>
        <mxCell id="TFK_jzNgdmk0VvyLswP--3" value="" style="endArrow=none;html=1;rounded=0;entryX=1;entryY=0;entryDx=0;entryDy=0;exitX=0;exitY=1;exitDx=0;exitDy=0;" edge="1" parent="TFK_jzNgdmk0VvyLswP--1" source="TFK_jzNgdmk0VvyLswP--2" target="TFK_jzNgdmk0VvyLswP--2">
          <mxGeometry width="50" height="50" relative="1" as="geometry">
            <mxPoint y="60" as="sourcePoint" />
            <mxPoint x="50" y="10" as="targetPoint" />
          </mxGeometry>
        </mxCell>
        <mxCell id="TFK_jzNgdmk0VvyLswP--4" value="" style="group" vertex="1" connectable="0" parent="1">
          <mxGeometry x="1040" y="165" width="60" height="60" as="geometry" />
        </mxCell>
        <mxCell id="TFK_jzNgdmk0VvyLswP--5" value="" style="rounded=0;whiteSpace=wrap;html=1;fontSize=24;" vertex="1" parent="TFK_jzNgdmk0VvyLswP--4">
          <mxGeometry width="60" height="60" as="geometry" />
        </mxCell>
        <mxCell id="TFK_jzNgdmk0VvyLswP--6" value="" style="endArrow=none;html=1;rounded=0;entryX=1;entryY=0;entryDx=0;entryDy=0;exitX=0;exitY=1;exitDx=0;exitDy=0;" edge="1" parent="TFK_jzNgdmk0VvyLswP--4" source="TFK_jzNgdmk0VvyLswP--5" target="TFK_jzNgdmk0VvyLswP--5">
          <mxGeometry width="50" height="50" relative="1" as="geometry">
            <mxPoint y="60" as="sourcePoint" />
            <mxPoint x="50" y="10" as="targetPoint" />
          </mxGeometry>
        </mxCell>
        <mxCell id="TFK_jzNgdmk0VvyLswP--7" value="" style="group" vertex="1" connectable="0" parent="1">
          <mxGeometry x="1431" y="165" width="60" height="60" as="geometry" />
        </mxCell>
        <mxCell id="TFK_jzNgdmk0VvyLswP--8" value="" style="rounded=0;whiteSpace=wrap;html=1;fontSize=24;" vertex="1" parent="TFK_jzNgdmk0VvyLswP--7">
          <mxGeometry width="60" height="60" as="geometry" />
        </mxCell>
        <mxCell id="TFK_jzNgdmk0VvyLswP--9" value="" style="endArrow=none;html=1;rounded=0;entryX=1;entryY=0;entryDx=0;entryDy=0;exitX=0;exitY=1;exitDx=0;exitDy=0;" edge="1" parent="TFK_jzNgdmk0VvyLswP--7" source="TFK_jzNgdmk0VvyLswP--8" target="TFK_jzNgdmk0VvyLswP--8">
          <mxGeometry width="50" height="50" relative="1" as="geometry">
            <mxPoint y="60" as="sourcePoint" />
            <mxPoint x="50" y="10" as="targetPoint" />
          </mxGeometry>
        </mxCell>
        <mxCell id="TFK_jzNgdmk0VvyLswP--10" value="" style="group" vertex="1" connectable="0" parent="1">
          <mxGeometry x="1371" y="90" width="60" height="60" as="geometry" />
        </mxCell>
        <mxCell id="TFK_jzNgdmk0VvyLswP--11" value="" style="rounded=0;whiteSpace=wrap;html=1;fontSize=24;" vertex="1" parent="TFK_jzNgdmk0VvyLswP--10">
          <mxGeometry width="60" height="60" as="geometry" />
        </mxCell>
        <mxCell id="TFK_jzNgdmk0VvyLswP--12" value="" style="endArrow=none;html=1;rounded=0;entryX=1;entryY=0;entryDx=0;entryDy=0;exitX=0;exitY=1;exitDx=0;exitDy=0;" edge="1" parent="TFK_jzNgdmk0VvyLswP--10" source="TFK_jzNgdmk0VvyLswP--11" target="TFK_jzNgdmk0VvyLswP--11">
          <mxGeometry width="50" height="50" relative="1" as="geometry">
            <mxPoint y="60" as="sourcePoint" />
            <mxPoint x="50" y="10" as="targetPoint" />
          </mxGeometry>
        </mxCell>
        <mxCell id="TFK_jzNgdmk0VvyLswP--13" value="" style="group" vertex="1" connectable="0" parent="1">
          <mxGeometry x="1770" y="90" width="60" height="60" as="geometry" />
        </mxCell>
        <mxCell id="TFK_jzNgdmk0VvyLswP--14" value="" style="rounded=0;whiteSpace=wrap;html=1;fontSize=24;" vertex="1" parent="TFK_jzNgdmk0VvyLswP--13">
          <mxGeometry width="60" height="60" as="geometry" />
        </mxCell>
        <mxCell id="TFK_jzNgdmk0VvyLswP--15" value="" style="endArrow=none;html=1;rounded=0;entryX=1;entryY=0;entryDx=0;entryDy=0;exitX=0;exitY=1;exitDx=0;exitDy=0;" edge="1" parent="TFK_jzNgdmk0VvyLswP--13" source="TFK_jzNgdmk0VvyLswP--14" target="TFK_jzNgdmk0VvyLswP--14">
          <mxGeometry width="50" height="50" relative="1" as="geometry">
            <mxPoint y="60" as="sourcePoint" />
            <mxPoint x="50" y="10" as="targetPoint" />
          </mxGeometry>
        </mxCell>
        <mxCell id="TFK_jzNgdmk0VvyLswP--16" value="" style="group" vertex="1" connectable="0" parent="1">
          <mxGeometry x="1890" y="165" width="60" height="60" as="geometry" />
        </mxCell>
        <mxCell id="TFK_jzNgdmk0VvyLswP--17" value="" style="rounded=0;whiteSpace=wrap;html=1;fontSize=24;" vertex="1" parent="TFK_jzNgdmk0VvyLswP--16">
          <mxGeometry width="60" height="60" as="geometry" />
        </mxCell>
        <mxCell id="TFK_jzNgdmk0VvyLswP--18" value="" style="endArrow=none;html=1;rounded=0;entryX=1;entryY=0;entryDx=0;entryDy=0;exitX=0;exitY=1;exitDx=0;exitDy=0;" edge="1" parent="TFK_jzNgdmk0VvyLswP--16" source="TFK_jzNgdmk0VvyLswP--17" target="TFK_jzNgdmk0VvyLswP--17">
          <mxGeometry width="50" height="50" relative="1" as="geometry">
            <mxPoint y="60" as="sourcePoint" />
            <mxPoint x="50" y="10" as="targetPoint" />
          </mxGeometry>
        </mxCell>
      </root>
    </mxGraphModel>
  </diagram>
</mxfile>
